<svg xmlns="http://www.w3.org/2000/svg" viewBox="0 0 853.06 907.82"><defs><style>.cls-1{fill:#fb9400;}.cls-2{fill:#dd7304;}.cls-3{fill:#e07405;}.cls-4{fill:#fed698;}.cls-5{fill:#eeb263;}.cls-6{fill:#fff7eb;}.cls-7{fill:#571a14;}.cls-8{fill:#db2e1a;}.cls-9{fill:#bb271a;}.cls-10{fill:#fe9701;}.cls-11{fill:#591811;}.cls-12{fill:#2f2f68;}.cls-13{fill:#11112b;}.cls-14{fill:#e67f12;}.cls-15{fill:#f9a637;}.cls-16{fill:#d16c07;}</style></defs><g id="Calque_2" data-name="Calque 2"><g id="Calque_1-2" data-name="Calque 1"><g id="Pied_Gauche" data-name="Pied Gauche"><path class="cls-1" d="M324.13,815.17l38,7.43L359,846.43c17.44,2.35,29.83,8.21,32.29,13.23a15.57,15.57,0,0,1,.46,13.53c-2.18,5.25-17.56,9.8-38.57,9.41-6,4.54-31.54,23.19-53.3,24.18-9.06.41-13.62-2.41-15-3.35-7.47-5.08-9.12-14.08-9.53-16.94-15.66,7.59-31.85,2-36.53-8.12-3.64-7.9-.11-18.2,5.65-24.18,5.6-5.81,12.76-7,22.94-8.11a480.13,480.13,0,0,1,49.24-3Q320.36,829.12,324.13,815.17Z"/><path class="cls-2" d="M330,791.7l36,8.47-4.24,24.7a171.12,171.12,0,0,1-38.11-7.76Q326.78,804.41,330,791.7Z"/><path class="cls-3" d="M275.29,886.4c1.4.79,3.91-4.24,12-9,6.81-4,11.17-4,11.08-5.31-.14-1.94-10.69-5.41-17.61-.52C274.58,875.94,273.55,885.4,275.29,886.4Z"/></g><g id="Pied_Droit" data-name="Pied Droit"><path class="cls-1" d="M534.82,816.17l-38,7.43L500,847.43c-17.44,2.35-29.83,8.21-32.29,13.23a18.48,18.48,0,0,0-1.77,6.53,18.16,18.16,0,0,0,1.31,7c2.18,5.25,17.55,9.8,38.57,9.41,6,4.54,31.53,23.19,53.3,24.18,9.06.41,13.61-2.41,15-3.35,7.46-5.08,9.12-14.08,9.53-16.94,15.66,7.59,31.85,2,36.53-8.12,3.64-7.9.11-18.2-5.65-24.18-5.61-5.81-12.76-7-22.94-8.11a480.13,480.13,0,0,0-49.24-3Q538.59,830.12,534.82,816.17Z"/><path class="cls-2" d="M528.78,791.7l-36,8.47,4.24,24.7a171.38,171.38,0,0,0,38.12-7.76Z"/><path class="cls-3" d="M583.67,887.41c-1.4.8-3.9-4.24-12-9-6.81-4-11.17-4-11.08-5.31.15-1.93,10.7-5.4,17.61-.51C584.38,877,585.41,886.42,583.67,887.41Z"/></g><path id="Corps" class="cls-4" d="M163,509.92c12.69-113.54,25.85-234.81,121.82-306.43,62.2-46.42,130.07-50.32,146.64-50.89,13.84-.47,84.47-1.77,153.54,43.32,38.29,25,59.79,53.6,65.28,61.15,19.49,26.79,29.21,52.13,36.72,75.85,23.78,75.09,49.58,172.08,23,290-23,102-68,179-293,181-92.18.82-149-26.89-184.61-60.72-44.08-41.88-58.41-95.47-64.07-117.28C158.21,587.13,158.22,552.13,163,509.92Z"/><g id="Aile_Droite" data-name="Aile Droite"><path class="cls-4" d="M711.6,460.79l-5.71,175.9c43.32-13,69.12-34.65,82.61-48.34,14.9-15.12,45.63-51.84,35.22-67.9-4.47-6.9-15.33-8.11-24.76-7.8a149.32,149.32,0,0,0,33.29-38.94c14.08-23.92,29-65.12,15.49-76.54-2.18-1.83-10-7.07-52.69,12.55A417.77,417.77,0,0,0,711.6,460.79Z"/><path class="cls-5" d="M716.39,514.24A286.6,286.6,0,0,1,724.19,630c-2.23.95-4.54,1.9-7,2.82q-5,1.89-9.61,3.37a433.73,433.73,0,0,0,8.77-121.93Z"/></g><g id="Oeil_Droit" data-name="Oeil Droit"><path class="cls-6" d="M279,368.48c5.63-35.76,38.79-71.27,77.64-65.93,39.15,5.38,63.23,49.4,56.48,86.75-7.53,41.56-53,73.42-91.06,60.71C290,439.28,274,400.48,279,368.48Z"/><path class="cls-7" d="M355.24,325.5c-22.32,1.84-38.08,28.67-38.65,51.57-.52,20.76,11.23,47.42,32.94,51.77,13,2.6,26.47-3.43,34.83-11.3s10.92-16.8,12.61-22.79c1.28-4.55,9.25-32.88-8.85-53.44C386.06,339,372.92,324,355.24,325.5Z"/><path class="cls-6" d="M358.39,359.07c1.23-7.77,8.44-15.5,16.89-14.34S389,355.48,387.57,363.6c-1.64,9-11.52,16-19.81,13.21C360.77,374.48,357.3,366,358.39,359.07Z"/></g><g id="Oeil_Gauche" data-name="Oeil Gauche"><path class="cls-6" d="M634.77,366.48c-5.63-35.76-38.79-71.27-77.64-65.93C518,305.93,493.9,350,500.66,387.3c7.52,41.56,53,73.42,91.05,60.71C623.85,437.28,639.82,398.48,634.77,366.48Z"/><path class="cls-7" d="M558.76,323.5c22.32,1.84,38.09,28.67,38.66,51.57.51,20.76-11.23,47.42-32.94,51.77-13,2.6-26.48-3.43-34.83-11.3s-10.93-16.8-12.61-22.79c-1.28-4.55-9.25-32.88,8.85-53.44C528,337,541.09,322,558.76,323.5Z"/><path class="cls-6" d="M561,357.07c-1.23-7.77-8.44-15.5-16.89-14.34s-13.75,10.75-12.28,18.87c1.63,9,11.52,16,19.8,13.21C558.66,372.48,562.14,364,561,357.07Z"/></g><g id="Bouche"><path class="cls-8" d="M426.79,470.76l66.07,2.52a66.5,66.5,0,0,0,8.42,13.47c5.44,6.75,9.85,9.47,13.89,13.05,1.13,1,14.32,13,17.67,30.3.73,3.75,4.79,24.76-9.68,37.87-12.08,11-28.1,8.25-29.46,8-15.43-2.87-22.89-15-24-16.83-1.29,2.59-7.33,14-21,18.79A36.65,36.65,0,0,1,415.43,573c-20.68-15.38-13.52-49.85-12.59-54.32,2.12-10.2,6.51-19,9.64-25.22A138,138,0,0,1,426.79,470.76Z"/><path class="cls-9" d="M471.9,562.33a60.15,60.15,0,0,0,1.66-12.93,61.29,61.29,0,0,0-5.05-25.25,63,63,0,0,1,1.42,24.62,62.3,62.3,0,0,1-5.65,18.48,39.11,39.11,0,0,0,3.44-4.59c.78-1.23,1.44-2.42,2-3.52Z"/><path class="cls-7" d="M415.53,419.43c11.34-18.55,82.39-7.35,88.23,18.35,2.4,10.52-6.33,22.67-10.58,28.59-5,6.91-12.61,17.53-24.36,19.41-23.95,3.82-43.78-32.1-45.88-36C417.14,439,410.79,427.17,415.53,419.43Z"/><path class="cls-8" d="M430.7,469.54c-.22-8.38,15.14-18.44,28.59-15.88,11.53,2.2,22.11,13.73,19.77,21.53s-16.73,9.05-18.36,9.18C447.39,485.39,430.94,478.09,430.7,469.54Z"/><path class="cls-10" d="M470.08,366.26c20.95,2.47,33.69,20,45.88,37.41,6.62,9.45,19.49,27.81,13.41,36.71-4.35,6.37-16.37,4.81-31.76,2.82-6.05-.78-46.91-6.05-73.26-18.13-1.44-.66-4.72-2.2-6.12-.94-3.08,2.79,5.12,17.29,12.32,26.84,8.36,11.09,20.58,27.28,35.29,25.63,8.09-.91,13.93-6.93,19.06-12.22a55.31,55.31,0,0,0,12.71-21.18l12.7-2.82a84.81,84.81,0,0,1-7.6,22.2c-2.66,5.25-18.35,36.15-41.1,36.39-10.19.1-17.7-6.37-27.53-14.6-8.27-6.93-13.05-14.27-22.59-28.94-9.14-14.05-10.47-19.21-10.59-24-.14-5.66,1.39-11.18,4.94-17.65C409.75,406.64,434.18,362,470.08,366.26Z"/></g><path id="Sourcil_Droit" data-name="Sourcil Droit" class="cls-11" d="M538.36,251.43c-.14.18-3,4.35-1,8.94a9.09,9.09,0,0,0,8.24,5.34,46,46,0,0,1,18-6.33,49.64,49.64,0,0,1,18.45,1.36,51.55,51.55,0,0,1,16.53,7.65,9.41,9.41,0,0,0,11.07-5.77,9.27,9.27,0,0,0-3.19-10.1,66.82,66.82,0,0,0-68.1-1.09Z"/><path id="Sourcil_Gauche" data-name="Sourcil Gauche" class="cls-11" d="M371.67,254.59c.14.18,3.14,4.26,1.24,8.92a9.11,9.11,0,0,1-8.07,5.58,46,46,0,0,0-18.16-5.78,49.78,49.78,0,0,0-18.39,1.92,51.61,51.61,0,0,0-16.3,8.15A9.41,9.41,0,0,1,300.75,268a9.28,9.28,0,0,1,2.88-10.19,66.85,66.85,0,0,1,68-3.17Z"/><g id="Beret"><path class="cls-12" d="M215.08,282.29C318.51,221.79,393.5,178.72,453.2,144.88c37-20.95,84.18-47.52,83.39-82.75-.52-22.76-20.92-42.18-37.9-51.6C436.42-24,346.2,34.84,298.23,66.13c-6.52,4.26-116.75,77.68-130.11,160.47-1.93,11.94-5.77,35.72,8.47,48.71C189.12,286.74,208.79,283.56,215.08,282.29Z"/><polygon class="cls-13" points="215.08 282.29 420.95 123.05 397.96 178.78 215.08 282.29"/><path class="cls-12" d="M301.56,68c-1.72-7.51-4.93-11-7.53-12.7-3.52-2.38-6.24-1.87-10.35-4.24a22.55,22.55,0,0,1-8.94-10.35c-.21-1.1-1.78-9.94,4.24-16.47,5.08-5.52,12.09-5.62,13.64-5.65,12.91-.19,21.78,12.44,24.94,16.94A49.43,49.43,0,0,1,326,57.6Z"/></g><path class="cls-8" d="M399.23,176.78a170.7,170.7,0,0,1,50.4,5.23c24.82,6.45,28.12,13.48,44.6,15.06,24.37,2.34,52.86-9.59,68.87-32.18,10.68-15.06,22.85-44.77,8.72-63.41-8.46-11.17-22.27-12.94-24.73-13.21-18.06-2-36.74,9.5-46.2,29.29.6-2.29,4.85-19.59-6.11-33.36-8.34-10.47-20.34-12.46-23.17-12.84-29-3.91-52.91,31-56.28,35.91C396.37,134.91,398,165.14,399.23,176.78Z"/><g id="Baguette"><path class="cls-14" d="M38.28,267.64c4.42-1.51,25.82-8,62.12,15.53,50.79,33,73.49,87.7,118.59,177.88,34.33,68.64,81,156.54,72.15,214.81-1.22,8-4.25,26.27-18.5,36.49C255,725,230.43,718,222.07,715.66c-51.27-14.51-76.52-86.63-133-195.31C27.07,400.9-16.2,346,5.81,300.11,8.34,294.85,18.07,274.58,38.28,267.64Z"/><path class="cls-15" d="M41.16,329.69c2.34-4.13,7.45-5.26,9.49-5.71,20.94-4.65,82.59,19.44,81.33,44.3a8.69,8.69,0,0,1-1.88,5.65c-5.38,6-19-1.73-49.89-12-23-7.61-33.69-9.37-38.19-19C41.37,341.53,38.25,334.83,41.16,329.69Z"/><path class="cls-15" d="M87.19,417.8c2.34-4.14,7.45-5.27,9.49-5.72,20.94-4.65,82.59,19.45,81.33,44.3a8.69,8.69,0,0,1-1.88,5.65c-5.38,6-19-1.73-49.88-12-23-7.61-33.7-9.37-38.2-19C87.4,429.63,84.28,422.93,87.19,417.8Z"/><path class="cls-15" d="M173.83,564.65c1.79-3.16,5.69-4,7.24-4.37,16-3.55,63.05,14.85,62.09,33.83a6.65,6.65,0,0,1-1.43,4.31c-4.11,4.57-14.5-1.32-38.08-9.13-17.55-5.82-25.72-7.16-29.16-14.54C174,573.68,171.61,568.57,173.83,564.65Z"/></g><g id="Aile_G" data-name="Aile G"><g id="Aile_G-2" data-name="Aile G"><path class="cls-16" d="M148.14,571.12c3.48-1.16,48.87-16.84,50.32-45a32.72,32.72,0,0,0-3-14.28c-16.79-34.73-116.13-25.33-126.08-24.32-6.47,4.43-19.51,14.75-25.88,32.47-9.66,26.88,3,51.41,8.89,62.9,13.66,26.52,35.3,39,43.06,43.41A112.74,112.74,0,0,0,131.46,639c9.78-4.2,27.81-13.87,37.18-33.41,3.49-7.3,8.85-18.49,3.29-26.82C165.36,568.93,148.86,571,148.14,571.12Z"/></g><path class="cls-5" d="M125.07,617.57l11.17-5.73q4.92,9.4,9.83,19,5.84,11.33,11.48,22.55a89.21,89.21,0,0,1-11.83.74,90.55,90.55,0,0,1-14.53-1.23Z"/><path class="cls-4" d="M141.75,549.69c3.48-1.16,48.87-16.84,50.32-45.05a32.72,32.72,0,0,0-3-14.28C172.25,455.63,72.91,465,63,466a88.13,88.13,0,0,0-25.89,32.47c-13.34,29.15-6.37,56.82-2.82,66.83,4.53,12.76,17.31,43.17,48.94,65.88a134.45,134.45,0,0,0,48,21.65,64.92,64.92,0,0,0-6.12-35.3c9.78-4.2,27.82-13.87,37.18-33.41,3.5-7.3,8.86-18.49,3.29-26.82C159,547.5,142.47,549.59,141.75,549.69Z"/></g></g></g></svg>